<svg xmlns="http://www.w3.org/2000/svg" xmlns:xlink="http://www.w3.org/1999/xlink" width="500" zoomAndPan="magnify" viewBox="0 0 375 374.999991" height="500" preserveAspectRatio="xMidYMid meet" version="1.0"><defs><g/></defs><path stroke-linecap="butt" transform="matrix(0.75, 0, 0, 0.75, 166.903266, -126.017761)" fill="none" stroke-linejoin="miter" d="M 27.582106 551.73726 C 25.498773 551.73726 23.332106 550.961218 21.076897 549.398718 C 18.993564 548.008093 17.087314 546.362259 15.352939 544.456009 C 13.790439 542.544551 12.399813 540.466426 11.186272 538.211217 C 10.842522 537.16955 10.53523 536.16955 10.274813 535.216425 C 10.019605 534.2633 10.061272 533.440383 10.405022 532.747675 L 33.566481 426.070585 L 97.311277 465.617462 L 90.545652 496.060173 L 142.06128 496.060173 L 150.128989 458.851837 L 42.931065 383.91954 L 69.207109 263.195574 L 244.316495 263.195574 C 246.571704 263.195574 248.738371 263.888282 250.816496 265.273699 C 252.899829 266.664324 254.806079 268.310158 256.540454 270.221616 C 258.102955 272.127866 259.49358 274.205991 260.707121 276.4612 C 261.39983 278.716408 261.660246 280.627867 261.488371 282.185159 L 239.628995 381.836207 L 175.884199 342.289329 L 180.826908 318.872661 L 130.092529 318.872661 L 124.108154 346.195579 L 231.045661 421.388293 L 202.686284 551.73726 Z M 27.582106 551.73726 " stroke="#ffffff" stroke-width="20.648363" stroke-opacity="1" stroke-miterlimit="4"/><g fill="#1791c8" fill-opacity="1"><g transform="translate(166.903266, 287.982211)"><g><path d="M 20.6875 -0.1875 C 19.125 -0.1875 17.5 -0.773438 15.8125 -1.953125 C 14.25 -2.992188 12.816406 -4.226562 11.515625 -5.65625 C 10.335938 -7.09375 9.296875 -8.65625 8.390625 -10.34375 C 8.128906 -11.125 7.898438 -11.867188 7.703125 -12.578125 C 7.515625 -13.296875 7.550781 -13.914062 7.8125 -14.4375 L 25.171875 -94.453125 L 72.984375 -64.78125 L 67.90625 -41.953125 L 106.546875 -41.953125 L 112.59375 -69.859375 L 32.203125 -126.0625 L 51.90625 -216.609375 L 183.234375 -216.609375 C 184.921875 -216.609375 186.546875 -216.085938 188.109375 -215.046875 C 189.671875 -214.003906 191.101562 -212.765625 192.40625 -211.328125 C 193.570312 -209.898438 194.613281 -208.34375 195.53125 -206.65625 C 196.050781 -204.957031 196.242188 -203.523438 196.109375 -202.359375 L 179.71875 -127.625 L 131.90625 -157.28125 L 135.625 -174.84375 L 97.5625 -174.84375 L 93.078125 -154.359375 L 173.28125 -97.953125 L 152.015625 -0.1875 Z M 20.6875 -0.1875 "/></g></g></g><path stroke-linecap="butt" transform="matrix(0.75, 0, 0, 0.75, 18.097954, -126.017761)" fill="none" stroke-linejoin="miter" d="M 237.812119 263.195574 C 239.890244 263.195574 242.056911 263.888282 244.312119 265.273699 C 246.567328 266.836199 248.56212 268.570574 250.296495 270.476825 C 251.858995 272.388283 253.161078 274.466408 254.202745 276.721617 C 255.244412 278.633075 255.588162 280.450784 255.244412 282.185159 L 200.343366 532.747675 C 200.171491 534.133092 199.041283 535.956009 196.95795 538.211217 C 195.223574 540.466426 192.968366 542.544551 190.197532 544.456009 C 188.806907 545.497676 187.463157 546.403926 186.161074 547.185176 C 184.864199 547.966426 183.51524 548.789343 182.129824 549.659135 C 179.010032 551.044551 176.57774 551.73726 174.843365 551.73726 L -0.000396722 551.73726 L 54.379815 303.523702 L 23.676688 263.195574 Z M 123.588153 318.872661 L 84.822526 496.060173 L 136.077737 496.060173 L 174.843365 318.872661 Z M 123.588153 318.872661 " stroke="#ffffff" stroke-width="20.648363" stroke-opacity="1" stroke-miterlimit="4"/><g fill="#000000" fill-opacity="1"><g transform="translate(18.097954, 287.982211)"><g><path d="M 178.359375 -216.609375 C 179.921875 -216.609375 181.546875 -216.085938 183.234375 -215.046875 C 184.921875 -213.867188 186.414062 -212.566406 187.71875 -211.140625 C 188.894531 -209.703125 189.875 -208.140625 190.65625 -206.453125 C 191.425781 -205.023438 191.679688 -203.660156 191.421875 -202.359375 L 150.25 -14.4375 C 150.125 -13.394531 149.28125 -12.03125 147.71875 -10.34375 C 146.414062 -8.65625 144.722656 -7.09375 142.640625 -5.65625 C 141.597656 -4.875 140.585938 -4.191406 139.609375 -3.609375 C 138.640625 -3.023438 137.632812 -2.40625 136.59375 -1.75 C 134.25 -0.707031 132.425781 -0.1875 131.125 -0.1875 L 0 -0.1875 L 40.78125 -186.359375 L 17.75 -216.609375 Z M 92.6875 -174.84375 L 63.609375 -41.953125 L 102.0625 -41.953125 L 131.125 -174.84375 Z M 92.6875 -174.84375 "/></g></g></g></svg>